{"accessors" : [{"bufferView" : 0, "byteOffset" : 0, "componentType" : 5123, "count" : 10545, "type" : "SCALAR", "max" : [9065], "min" : [0]}, {"bufferView" : 1, "byteOffset" : 0, "componentType" : 5126, "count" : 9066, "type" : "VEC3", "max" : [39, -11, 67], "min" : [-30, -36, 0], "name" : "POSITION"}, {"bufferView" : 0, "byteOffset" : 21092, "componentType" : 5123, "count" : 5055, "type" : "SCALAR", "max" : [4390], "min" : [0]}, {"bufferView" : 2, "byteOffset" : 0, "componentType" : 5126, "count" : 4391, "type" : "VEC3", "max" : [2, -8.5, 71], "min" : [-20, -38.5, 10], "name" : "POSITION"}, {"bufferView" : 0, "byteOffset" : 31204, "componentType" : 5123, "count" : 4920, "type" : "SCALAR", "max" : [4118], "min" : [0]}, {"bufferView" : 3, "byteOffset" : 0, "componentType" : 5126, "count" : 4119, "type" : "VEC3", "max" : [-4, -10, 65], "min" : [-12, -37, 11], "name" : "POSITION"}, {"bufferView" : 0, "byteOffset" : 41044, "componentType" : 5123, "count" : 24414, "type" : "SCALAR", "max" : [20543], "min" : [0]}, {"bufferView" : 4, "byteOffset" : 0, "componentType" : 5126, "count" : 20544, "type" : "VEC3", "max" : [39, -10, 56], "min" : [-44, -37, 2], "name" : "POSITION"}, {"bufferView" : 0, "byteOffset" : 89872, "componentType" : 5123, "count" : 5436, "type" : "SCALAR", "max" : [4751], "min" : [0]}, {"bufferView" : 5, "byteOffset" : 0, "componentType" : 5126, "count" : 4752, "type" : "VEC3", "max" : [12, -13.954999923706055, 66], "min" : [-13.84570026397705, -33.04499816894531, 44], "name" : "POSITION"}], "asset" : {"generator" : "Aspose.3D 22.3", "version" : "2.0"}, "buffers" : [{"uri" : "data:application/octet-stream;base64,", "byteLength" : 705208}], "bufferViews" : [{"buffer" : 0, "byteOffset" : 0, "byteLength" : 100744, "target" : 34963}, {"buffer" : 0, "byteOffset" : 100748, "byteLength" : 126540, "byteStride" : 12, "target" : 34962}, {"buffer" : 0, "byteOffset" : 227292, "byteLength" : 60660, "byteStride" : 12, "target" : 34962}, {"buffer" : 0, "byteOffset" : 287956, "byteLength" : 59040, "byteStride" : 12, "target" : 34962}, {"buffer" : 0, "byteOffset" : 347000, "byteLength" : 292968, "byteStride" : 12, "target" : 34962}, {"buffer" : 0, "byteOffset" : 639972, "byteLength" : 65232, "byteStride" : 12, "target" : 34962}], "materials" : [{"name" : "color_2829873", "pbrMetallicRoughness" : {"baseColorFactor" : [0.16862745098039217, 0.1803921568627451, 0.19215686274509805, 1], "metallicFactor" : 0, "roughnessFactor" : 0}, "emissiveFactor" : [0, 0, 0], "alphaMode" : "OPAQUE", "doubleSided" : false}, {"name" : "color_6306067", "pbrMetallicRoughness" : {"baseColorFactor" : [0.3764705882352941, 0.2235294117647059, 0.07450980392156863, 1], "metallicFactor" : 0, "roughnessFactor" : 0}, "emissiveFactor" : [0, 0, 0], "alphaMode" : "OPAQUE", "doubleSided" : false}, {"name" : "color_6383466", "pbrMetallicRoughness" : {"baseColorFactor" : [0.3803921568627451, 0.403921568627451, 0.41568627450980394, 1], "metallicFactor" : 0, "roughnessFactor" : 0}, "emissiveFactor" : [0, 0, 0], "alphaMode" : "OPAQUE", "doubleSided" : false}, {"name" : "color_11107152", "pbrMetallicRoughness" : {"baseColorFactor" : [0.6627450980392157, 0.4823529411764706, 0.3137254901960784, 1], "metallicFactor" : 0, "roughnessFactor" : 0}, "emissiveFactor" : [0, 0, 0], "alphaMode" : "OPAQUE", "doubleSided" : false}, {"name" : "color_14860437", "pbrMetallicRoughness" : {"baseColorFactor" : [0.8862745098039215, 0.7529411764705882, 0.5843137254901961, 1], "metallicFactor" : 0, "roughnessFactor" : 0}, "emissiveFactor" : [0, 0, 0], "alphaMode" : "OPAQUE", "doubleSided" : false}], "meshes" : [{"primitives" : [{"attributes" : {"POSITION" : 1}, "indices" : 0, "material" : 0, "mode" : 4}], "name" : ""}, {"primitives" : [{"attributes" : {"POSITION" : 3}, "indices" : 2, "material" : 1, "mode" : 4}], "name" : ""}, {"primitives" : [{"attributes" : {"POSITION" : 5}, "indices" : 4, "material" : 2, "mode" : 4}], "name" : ""}, {"primitives" : [{"attributes" : {"POSITION" : 7}, "indices" : 6, "material" : 3, "mode" : 4}], "name" : ""}, {"primitives" : [{"attributes" : {"POSITION" : 9}, "indices" : 8, "material" : 4, "mode" : 4}], "name" : ""}], "nodes" : [{"mesh" : 0, "name" : "group_0_2829873"}, {"mesh" : 1, "name" : "group_0_6306067"}, {"mesh" : 2, "name" : "group_0_6383466"}, {"mesh" : 3, "name" : "group_0_11107152"}, {"mesh" : 4, "name" : "group_0_14860437"}], "scene" : 0, "scenes" : [{"nodes" : [0, 1, 2, 3, 4]}]}